# xmcd
#
# Track frame offsets:
#	150
#	21328
#	39170
#	62337
#	83461
#	103542
#	127675
#	145954
#	162717
#	184657
#	203198
#	221947
#
# Disc length: 3213 seconds
#
# Revision: 1
# Processed by: cddbd v1.5.2PL0 Copyright (c) Steve Scherf et al.
# Submitted via: audiograbber 1.83.01
#
DISCID=9f0c8b0c
DTITLE=John Mayall - Wake up call
DYEAR=1900
DGENRE=
TTITLE0=mail order mystics
TTITLE1=maydell
TTITLE2=i could cry
TTITLE3=wake up call
TTITLE4=loaded dice
TTITLE5=undercover agent for the blues
TTITLE6=light the fuse
TTITLE7=anything i can say
TTITLE8=nature's-disappearing john-mayall
TTITLE9=i'm a sucker for love
TTITLE10=not at home
TTITLE11=ain't that lovin' you baby
EXTD=
EXTT0=
EXTT1=
EXTT2=
EXTT3=
EXTT4=
EXTT5=
EXTT6=
EXTT7=
EXTT8=
EXTT9=
EXTT10=
EXTT11=
PLAYORDER=
